<svg xmlns="http://www.w3.org/2000/svg" xmlns:xlink="http://www.w3.org/1999/xlink" width="480" zoomAndPan="magnify" viewBox="0 0 360 208.499994" height="278" preserveAspectRatio="xMidYMid meet" version="1.0"><path fill="#639fa6" d="M 47.519531 144.578125 C 37.941406 139.597656 30.363281 132.023438 24.675781 121.960938 C 18.988281 111.898438 16.097656 99.742188 16.097656 85.390625 C 16.097656 71.34375 19.089844 59.085938 24.976562 48.722656 C 30.859375 38.363281 38.640625 30.390625 48.316406 24.910156 C 57.996094 19.429688 68.570312 16.640625 79.941406 16.640625 C 88.023438 16.640625 95.703125 18.234375 102.6875 21.421875 C 109.769531 24.609375 115.855469 28.796875 120.941406 33.878906 L 102.6875 56 C 98.996094 52.808594 95.503906 50.417969 92.113281 48.722656 C 88.71875 47.128906 84.929688 46.332031 80.738281 46.332031 C 75.550781 46.332031 70.765625 47.828125 66.375 50.917969 C 61.984375 54.003906 58.492188 58.390625 55.800781 64.070312 C 53.207031 69.75 51.808594 76.425781 51.808594 84.097656 C 51.808594 96.152344 54.402344 105.519531 59.492188 112.195312 C 64.679688 118.871094 71.5625 122.257812 80.242188 122.257812 C 89.21875 122.257812 97.199219 118.472656 104.183594 111 L 122.4375 132.722656 C 116.851562 139.199219 110.367188 143.980469 102.984375 147.167969 C 95.605469 150.359375 87.523438 151.953125 78.945312 151.953125 C 67.671875 152.050781 57.097656 149.5625 47.519531 144.578125 Z M 47.519531 144.578125 " fill-opacity="1" fill-rule="nonzero"/><path fill="#639fa6" d="M 130.71875 19.132812 L 216.113281 19.132812 L 216.113281 48.027344 L 165.734375 48.027344 L 165.734375 68.554688 L 208.832031 68.554688 L 208.832031 97.449219 L 165.734375 97.449219 L 165.734375 120.765625 L 218.207031 120.765625 L 218.207031 149.660156 L 130.820312 149.660156 L 130.820312 19.132812 Z M 130.71875 19.132812 " fill-opacity="1" fill-rule="nonzero"/><path fill="#639fa6" d="M 233.570312 19.132812 L 269.382812 19.132812 L 298.613281 77.421875 L 311.183594 106.714844 L 311.980469 106.714844 C 311.882812 105.222656 311.480469 102.53125 310.984375 98.644531 C 308.6875 80.109375 307.492188 66.261719 307.492188 56.894531 L 307.492188 19.132812 L 340.8125 19.132812 L 340.8125 149.761719 L 304.996094 149.761719 L 275.769531 91.269531 L 263.199219 62.175781 L 262.402344 62.175781 L 263.597656 72.835938 C 265.792969 89.675781 266.890625 102.730469 266.890625 111.996094 L 266.890625 149.761719 L 233.570312 149.761719 Z M 233.570312 19.132812 " fill-opacity="1" fill-rule="nonzero"/><path fill="#60164c" d="M 20.882812 187.824219 C 19.488281 187.125 18.390625 186.03125 17.59375 184.632812 C 16.792969 183.238281 16.394531 181.445312 16.394531 179.355469 C 16.394531 177.359375 16.792969 175.566406 17.691406 174.074219 C 18.492188 172.578125 19.6875 171.480469 21.085938 170.683594 C 22.480469 169.886719 23.976562 169.488281 25.574219 169.488281 C 26.769531 169.488281 27.867188 169.6875 28.867188 170.1875 C 29.863281 170.683594 30.761719 171.28125 31.460938 171.980469 L 28.867188 175.167969 C 28.367188 174.671875 27.867188 174.371094 27.367188 174.171875 C 26.871094 173.972656 26.371094 173.875 25.773438 173.875 C 25.074219 173.875 24.375 174.074219 23.679688 174.570312 C 23.078125 174.96875 22.582031 175.667969 22.179688 176.464844 C 21.78125 177.261719 21.582031 178.257812 21.582031 179.355469 C 21.582031 181.046875 21.980469 182.441406 22.679688 183.339844 C 23.378906 184.335938 24.375 184.734375 25.671875 184.734375 C 26.96875 184.734375 28.066406 184.234375 29.066406 183.140625 L 31.660156 186.230469 C 30.859375 187.125 29.960938 187.824219 28.867188 188.320312 C 27.769531 188.820312 26.671875 189.019531 25.375 189.019531 C 23.777344 188.917969 22.28125 188.621094 20.882812 187.824219 Z M 20.882812 187.824219 " fill-opacity="1" fill-rule="nonzero"/><path fill="#60164c" d="M 36.445312 187.722656 C 35.148438 186.925781 34.054688 185.832031 33.355469 184.335938 C 32.65625 182.839844 32.257812 181.148438 32.257812 179.054688 C 32.257812 176.960938 32.65625 175.269531 33.355469 173.875 C 34.054688 172.378906 35.148438 171.28125 36.445312 170.585938 C 37.742188 169.789062 39.339844 169.488281 41.035156 169.488281 C 42.832031 169.488281 44.328125 169.886719 45.625 170.585938 C 46.921875 171.382812 48.019531 172.476562 48.71875 173.875 C 49.414062 175.269531 49.816406 177.0625 49.816406 179.054688 C 49.816406 181.046875 49.414062 182.839844 48.71875 184.335938 C 48.019531 185.832031 46.921875 186.925781 45.625 187.722656 C 44.328125 188.519531 42.730469 188.917969 41.035156 188.917969 C 39.339844 188.917969 37.742188 188.519531 36.445312 187.722656 Z M 43.730469 183.238281 C 44.425781 182.242188 44.726562 180.949219 44.726562 179.152344 C 44.726562 177.460938 44.425781 176.164062 43.730469 175.167969 C 43.03125 174.171875 42.132812 173.773438 41.035156 173.773438 C 39.9375 173.773438 39.039062 174.273438 38.34375 175.167969 C 37.644531 176.066406 37.34375 177.460938 37.34375 179.152344 C 37.34375 180.847656 37.644531 182.242188 38.34375 183.238281 C 39.039062 184.234375 39.9375 184.734375 41.035156 184.734375 C 42.132812 184.734375 43.128906 184.136719 43.730469 183.238281 Z M 43.730469 183.238281 " fill-opacity="1" fill-rule="nonzero"/><path fill="#60164c" d="M 53.207031 169.886719 L 58.195312 169.886719 L 58.195312 184.433594 L 65.378906 184.433594 L 65.378906 188.621094 L 53.207031 188.621094 Z M 53.207031 169.886719 " fill-opacity="1" fill-rule="nonzero"/><path fill="#60164c" d="M 68.667969 169.886719 L 73.65625 169.886719 L 73.65625 184.433594 L 80.839844 184.433594 L 80.839844 188.621094 L 68.667969 188.621094 Z M 68.667969 169.886719 " fill-opacity="1" fill-rule="nonzero"/><path fill="#60164c" d="M 84.132812 169.886719 L 96.402344 169.886719 L 96.402344 174.074219 L 89.21875 174.074219 L 89.21875 176.960938 L 95.40625 176.960938 L 95.40625 181.148438 L 89.21875 181.148438 L 89.21875 184.433594 L 96.703125 184.433594 L 96.703125 188.621094 L 84.132812 188.621094 Z M 84.132812 169.886719 " fill-opacity="1" fill-rule="nonzero"/><path fill="#60164c" d="M 104.082031 187.824219 C 102.6875 187.125 101.488281 186.03125 100.691406 184.632812 C 99.894531 183.238281 99.394531 181.445312 99.394531 179.355469 C 99.394531 177.359375 99.792969 175.566406 100.691406 174.074219 C 101.589844 172.578125 102.6875 171.480469 104.082031 170.683594 C 105.480469 169.886719 107.078125 169.488281 108.773438 169.488281 C 110.070312 169.488281 111.265625 169.6875 112.265625 170.1875 C 113.261719 170.683594 114.160156 171.28125 114.957031 171.980469 L 112.363281 175.167969 C 111.863281 174.671875 111.367188 174.371094 110.765625 174.171875 C 110.269531 173.972656 109.671875 173.875 108.972656 173.875 C 107.675781 173.875 106.578125 174.371094 105.78125 175.367188 C 104.980469 176.363281 104.484375 177.660156 104.484375 179.355469 C 104.484375 181.148438 104.882812 182.542969 105.679688 183.4375 C 106.476562 184.335938 107.773438 184.832031 109.371094 184.832031 C 109.96875 184.832031 110.46875 184.734375 110.867188 184.535156 L 110.867188 181.945312 L 108.171875 181.945312 L 108.171875 177.957031 L 115.355469 177.957031 L 115.355469 186.925781 C 114.65625 187.625 113.761719 188.121094 112.5625 188.621094 C 111.464844 189.019531 110.167969 189.21875 108.972656 189.21875 C 107.175781 188.917969 105.578125 188.621094 104.082031 187.824219 Z M 104.082031 187.824219 " fill-opacity="1" fill-rule="nonzero"/><path fill="#60164c" d="M 119.046875 169.886719 L 124.035156 169.886719 L 124.035156 188.621094 L 119.046875 188.621094 Z M 119.046875 169.886719 " fill-opacity="1" fill-rule="nonzero"/><path fill="#60164c" d="M 137.203125 184.632812 L 131.917969 184.632812 L 131.019531 188.621094 L 125.929688 188.621094 L 131.714844 169.886719 L 137.800781 169.886719 L 143.589844 188.621094 L 138.300781 188.621094 Z M 136.304688 180.75 L 136.007812 179.453125 C 135.707031 178.457031 135.507812 177.359375 135.207031 176.265625 L 134.609375 173.574219 L 134.511719 173.574219 L 134.308594 174.371094 C 133.910156 176.464844 133.511719 178.15625 133.113281 179.453125 L 132.8125 180.75 Z M 136.304688 180.75 " fill-opacity="1" fill-rule="nonzero"/><path fill="#60164c" d="M 146.582031 174.074219 L 141.59375 174.074219 L 141.59375 169.886719 L 156.65625 169.886719 L 156.65625 174.074219 L 151.667969 174.074219 L 151.667969 188.621094 L 146.679688 188.621094 L 146.679688 174.074219 Z M 146.582031 174.074219 " fill-opacity="1" fill-rule="nonzero"/><path fill="#60164c" d="M 159.351562 169.886719 L 171.621094 169.886719 L 171.621094 174.074219 L 164.4375 174.074219 L 164.4375 176.960938 L 170.621094 176.960938 L 170.621094 181.148438 L 164.4375 181.148438 L 164.4375 184.433594 L 171.917969 184.433594 L 171.917969 188.621094 L 159.449219 188.621094 L 159.449219 169.886719 Z M 159.351562 169.886719 " fill-opacity="1" fill-rule="nonzero"/><path fill="#60164c" d="M 181.398438 169.886719 L 193.667969 169.886719 L 193.667969 174.074219 L 186.484375 174.074219 L 186.484375 176.960938 L 192.667969 176.960938 L 192.667969 181.148438 L 186.484375 181.148438 L 186.484375 184.433594 L 193.964844 184.433594 L 193.964844 188.621094 L 181.496094 188.621094 L 181.496094 169.886719 Z M 181.398438 169.886719 " fill-opacity="1" fill-rule="nonzero"/><path fill="#60164c" d="M 197.558594 169.886719 L 203.144531 169.886719 C 206.136719 169.886719 208.53125 170.683594 210.226562 172.179688 C 211.921875 173.675781 212.820312 176.066406 212.820312 179.152344 C 212.820312 182.34375 211.921875 184.734375 210.226562 186.230469 C 208.53125 187.722656 206.238281 188.519531 203.34375 188.519531 L 197.457031 188.519531 L 197.457031 169.886719 Z M 202.84375 184.632812 C 204.339844 184.632812 205.539062 184.234375 206.4375 183.4375 C 207.332031 182.640625 207.734375 181.246094 207.734375 179.152344 C 207.734375 177.160156 207.332031 175.765625 206.4375 174.96875 C 205.539062 174.171875 204.339844 173.875 202.84375 173.875 L 202.546875 173.875 L 202.546875 184.632812 Z M 202.84375 184.632812 " fill-opacity="1" fill-rule="nonzero"/><path fill="#60164c" d="M 218.007812 186.628906 C 216.710938 185.132812 216.113281 182.742188 216.113281 179.554688 L 216.113281 169.886719 L 221.101562 169.886719 L 221.101562 180.152344 C 221.101562 181.84375 221.300781 182.941406 221.800781 183.636719 C 222.199219 184.335938 222.996094 184.632812 223.992188 184.632812 C 224.992188 184.632812 225.789062 184.234375 226.1875 183.539062 C 226.6875 182.839844 226.886719 181.644531 226.886719 180.050781 L 226.886719 169.789062 L 231.675781 169.789062 L 231.675781 179.453125 C 231.675781 182.640625 231.078125 185.03125 229.78125 186.527344 C 228.484375 188.023438 226.585938 188.820312 223.894531 188.820312 C 221.300781 188.917969 219.304688 188.121094 218.007812 186.628906 Z M 218.007812 186.628906 " fill-opacity="1" fill-rule="nonzero"/><path fill="#60164c" d="M 234.96875 179.554688 L 242.347656 179.554688 L 242.347656 183.039062 L 234.96875 183.039062 Z M 234.96875 179.554688 " fill-opacity="1" fill-rule="nonzero"/><path fill="#60164c" d="M 245.640625 169.886719 L 250.730469 169.886719 L 254.917969 178.257812 L 256.714844 182.441406 L 256.8125 182.441406 C 256.8125 182.242188 256.714844 181.84375 256.714844 181.246094 C 256.414062 178.554688 256.214844 176.5625 256.214844 175.269531 L 256.214844 169.886719 L 261.003906 169.886719 L 261.003906 188.621094 L 255.917969 188.621094 L 251.726562 180.25 L 249.929688 176.066406 L 249.832031 176.066406 L 250.03125 177.558594 C 250.328125 179.953125 250.53125 181.84375 250.53125 183.140625 L 250.53125 188.519531 L 245.742188 188.519531 L 245.742188 169.886719 Z M 245.640625 169.886719 " fill-opacity="1" fill-rule="nonzero"/><path fill="#60164c" d="M 274.171875 184.632812 L 268.886719 184.632812 L 267.988281 188.621094 L 262.898438 188.621094 L 268.6875 169.886719 L 274.769531 169.886719 L 280.558594 188.621094 L 275.269531 188.621094 Z M 273.273438 180.75 L 272.976562 179.453125 C 272.675781 178.457031 272.476562 177.359375 272.175781 176.265625 L 271.578125 173.574219 L 271.480469 173.574219 L 271.28125 174.371094 C 270.878906 176.464844 270.480469 178.15625 270.082031 179.453125 L 269.78125 180.75 Z M 273.273438 180.75 " fill-opacity="1" fill-rule="nonzero"/><path fill="#60164c" d="M 283.550781 174.074219 L 278.5625 174.074219 L 278.5625 169.886719 L 293.625 169.886719 L 293.625 174.074219 L 288.636719 174.074219 L 288.636719 188.621094 L 283.648438 188.621094 L 283.648438 174.074219 Z M 283.550781 174.074219 " fill-opacity="1" fill-rule="nonzero"/><path fill="#60164c" d="M 296.320312 169.886719 L 301.308594 169.886719 L 301.308594 188.621094 L 296.320312 188.621094 Z M 296.320312 169.886719 " fill-opacity="1" fill-rule="nonzero"/><path fill="#60164c" d="M 308.886719 187.722656 C 307.589844 186.925781 306.496094 185.832031 305.796875 184.335938 C 305.097656 182.839844 304.699219 181.148438 304.699219 179.054688 C 304.699219 176.960938 305.097656 175.269531 305.796875 173.875 C 306.496094 172.378906 307.589844 171.28125 308.886719 170.585938 C 310.183594 169.789062 311.78125 169.488281 313.476562 169.488281 C 315.273438 169.488281 316.769531 169.886719 318.066406 170.585938 C 319.363281 171.382812 320.460938 172.476562 321.160156 173.875 C 321.855469 175.269531 322.257812 177.0625 322.257812 179.054688 C 322.257812 181.046875 321.855469 182.839844 321.160156 184.335938 C 320.460938 185.832031 319.363281 186.925781 318.066406 187.722656 C 316.769531 188.519531 315.171875 188.917969 313.476562 188.917969 C 311.78125 188.917969 310.183594 188.519531 308.886719 187.722656 Z M 316.171875 183.238281 C 316.871094 182.242188 317.167969 180.949219 317.167969 179.152344 C 317.167969 177.460938 316.871094 176.164062 316.171875 175.167969 C 315.472656 174.171875 314.574219 173.773438 313.476562 173.773438 C 312.378906 173.773438 311.480469 174.273438 310.785156 175.167969 C 310.085938 176.066406 309.785156 177.460938 309.785156 179.152344 C 309.785156 180.847656 310.085938 182.242188 310.785156 183.238281 C 311.480469 184.234375 312.378906 184.734375 313.476562 184.734375 C 314.574219 184.734375 315.472656 184.136719 316.171875 183.238281 Z M 316.171875 183.238281 " fill-opacity="1" fill-rule="nonzero"/><path fill="#60164c" d="M 325.648438 169.886719 L 330.734375 169.886719 L 334.925781 178.257812 L 336.722656 182.441406 L 336.820312 182.441406 C 336.820312 182.242188 336.722656 181.84375 336.722656 181.246094 C 336.421875 178.554688 336.222656 176.5625 336.222656 175.269531 L 336.222656 169.886719 L 341.011719 169.886719 L 341.011719 188.621094 L 335.921875 188.621094 L 331.734375 180.25 L 329.9375 176.066406 L 329.835938 176.066406 L 330.039062 177.558594 C 330.335938 179.953125 330.535156 181.84375 330.535156 183.140625 L 330.535156 188.519531 L 325.648438 188.519531 Z M 325.648438 169.886719 " fill-opacity="1" fill-rule="nonzero"/></svg>